<svg width="37" height="37" viewBox="0 0 37 37" fill="none" xmlns="http://www.w3.org/2000/svg">
<path id="Vector" d="M24.1066 12.9879L23.3791 28.9705M13.3123 28.9705L12.5848 12.9879M33.5426 7.28742C34.2617 7.37977 34.9765 7.47744 35.6914 7.58221M33.5426 7.28742L31.2971 31.9415C31.2055 32.9453 30.6686 33.8828 29.7939 34.5667C28.9192 35.2505 27.771 35.6302 26.5791 35.6299H10.1123C8.92035 35.6302 7.77223 35.2505 6.89749 34.5667C6.02276 33.8828 5.48589 32.9453 5.39424 31.9415L3.14876 7.28742M33.5426 7.28742C31.116 6.97757 28.6769 6.74241 26.2301 6.58241M3.14876 7.28742C2.4297 7.37799 1.71485 7.47566 1 7.58044M3.14876 7.28742C5.57534 6.97757 8.01446 6.74241 10.4613 6.58241M26.2301 6.58241V4.95574C26.2301 2.86024 24.3168 1.1128 21.8359 1.0471C19.5097 0.984301 17.1817 0.984301 14.8555 1.0471C12.3746 1.1128 10.4613 2.86201 10.4613 4.95574V6.58241M26.2301 6.58241C20.9817 6.23981 15.7097 6.23981 10.4613 6.58241" stroke="black" stroke-linecap="round" stroke-linejoin="round"/>
</svg>
